<svg xmlns="http://www.w3.org/2000/svg" id="Layer_2" viewBox="0 0 646.21 92.61" class="h-20 w-auto"><defs><style>
                    .cls-1 { fill: none; stroke: #86754e; }
                    .cls-2 { letter-spacing: .19em; }
                    .cls-3 { letter-spacing: .19em; }
                    .cls-4 { letter-spacing: .19em; }
                    .cls-5 { letter-spacing: .19em; }
                    .cls-6 { letter-spacing: .21em; }
                    .cls-7 { letter-spacing: .17em; }
                    .cls-8 { letter-spacing: .16em; }
                    .cls-9 { letter-spacing: .17em; }
                    .cls-10 { letter-spacing: .17em; }
                    .cls-11 { letter-spacing: .18em; }
                    .cls-12 { letter-spacing: .18em; }
                    .cls-13 { letter-spacing: .18em; }
                    .cls-14 { font-size: 29.87px; }
                    .cls-14, .cls-15 { fill: white; font-family: WatersTitlingPro-Bd, 'Waters Titling Pro'; }
                    .cls-15 { font-size: 43.93px; }
                    .cls-16 { fill: #86754e; }
                  </style></defs><g id="Layer_1-2" data-name="Layer_1"><path class="cls-16" d="M137.08,91.91c-16.42,0-28.49-5.98-43.68-21.45-.33-.32-.65-.64-.97-.96h0c-2.04,1.34-4.07,2.65-6.09,3.9-16.84,10.28-35.74,19.21-56.69,19.21-13.91,0-29.65-6.4-29.65-21.43s18.03-22.61,33.29-22.61c4.51,0,9.3.84,13.35,2.49h0c.21-3.55.36-8.49.36-14.39v-8.35c0-9.49-.28-15.66-.76-18.79-.29-2.28-1.23-3.42-5.41-3.42-1.14,0-2.37,0-2.37-.95s.57-1.23,1.9-1.23c1.9,0,8.35.67,13.57.67,6.36,0,12.24-.67,13.76-.67,1.42,0,1.9.19,1.9.95,0,.85-.57,1.23-2.28,1.23-3.61,0-4.65.76-4.93,3.61-.28,3.22-.38,10.63-.38,18.79v10.72c0,5.12,0,11.1.66,16.7.38,2.75,1.52,4.08,5.32,4.08,1.33,0,1.8.38,1.8,1.14,0,.95-.95,1.04-2.56,1.04-4.31,0-7.4-.45-10.75-.61.04.4.07.8.07,1.21,0,9.96-11.46,16.37-21.35,16.37-7.12,0-15.1-4.03-15.1-11.07,0-2.93,2.37-5.62,4.74-6.48.31-.08.95-.24.95,0,.08.16-.47.24-.79.39-2.06.79-4.11,3.16-4.11,6.01,0,6.01,6.4,8.85,14.31,8.85,9.72,0,20.56-4.27,20.56-14.07,0-.42-.02-.84-.08-1.24-.45-.01-.9-.02-1.36-.02-5.32,0-13.19.66-14.52.66-1.14,0-1.8-.38-1.8-1.14s.76-1.04,2.28-1.04c3.8,0,5.6-1.14,5.98-4.27.12-.9.24-2.2.35-3.86h0c-4.09-1.71-8.95-2.53-13.3-2.53-14.87,0-32.5,6.88-32.5,21.9s15.42,20.4,28.86,20.4c18.82,0,38.03-11.86,53.45-21.59,2-1.26,4.06-2.55,6.16-3.84h0c-11.99-12.55-21.04-25.18-25.64-31.83-.19-.38-.38-.85-.38-1.14,0-.38.38-.95,1.14-1.71,6.73-6.17,16.99-18.69,23.63-26.38.47-.57,1.33-1.23,2.09-1.23,1.61,0,5.03.19,5.79.19.85,0,3.99-.19,5.79-.19.76,0,1.24.28,1.24.95s-.48,1.33-2.37,1.33c-1.61,0-3.6.28-5.03,1.14-6.83,4.46-11.67,9.3-20.78,18.22-.76.76-.67,1.42-.19,2.09,6.56,9.41,16.58,21.09,27.33,31.27,11.68-6.22,24.37-11.15,37.55-11.15,13.99,0,29.65,6.09,29.65,21.19v.08c0,15.26-16.71,22.85-31.97,22.85M161.71,82.35c4.23-3.17,6.47-7.61,6.47-13.54,0-14.47-15.34-20.08-28.86-20.08-12.15,0-23.61,5.86-34.67,12.8h0c.14.13.28.26.43.39,4.28,3.9,8.28,7.21,12.02,10.01h0c3.66-5.82,12.02-8.96,19.53-8.96,7.04,0,15.02,4.03,15.02,11.15,0,2.85-2.37,5.69-4.75,6.49-.24.08-.95.24-1.03.08,0-.16.55-.4.87-.48,2.13-.79,4.11-3.24,4.11-6.01,0-6.01-6.32-8.94-14.31-8.94-7.4,0-15.39,1.92-18.79,7.16,13.64,10.05,23.77,13.16,31.58,13.16,3.7,0,9.03-.71,12.38-3.23Z"></path><text class="cls-15" transform="translate(126.89 36.33)"><tspan class="cls-2" x="0" y="0">T</tspan><tspan class="cls-5" x="37.25" y="0">HE </tspan><tspan class="cls-11" x="134.77" y="0">K</tspan><tspan class="cls-5" x="174.39" y="0">E</tspan><tspan class="cls-2" x="209.05" y="0">N</tspan><tspan class="cls-12" x="252.19" y="0">S</tspan><tspan class="cls-3" x="283.16" y="0">I</tspan><tspan class="cls-12" x="308.02" y="0">NG</tspan><tspan class="cls-7" x="391.3" y="0">T</tspan><tspan class="cls-10" x="427.67" y="0">O</tspan><tspan class="cls-5" x="469.14" y="0">N</tspan></text><text class="cls-14" transform="translate(304.4 77.76)"><tspan class="cls-4" x="0" y="0">R</tspan><tspan class="cls-6" x="27.45" y="0">E</tspan><tspan class="cls-13" x="51.62" y="0">S</tspan><tspan class="cls-8" x="72.67" y="0">T</tspan><tspan class="cls-9" x="97.41" y="0">O</tspan><tspan class="cls-4" x="125.6" y="0">N</tspan></text><line class="cls-1" x1="141.21" y1="48.31" x2="627.3" y2="49.09"></line></g></svg>